<svg version="1.1" id="Layer_1" xmlns="http://www.w3.org/2000/svg" xmlns:xlink="http://www.w3.org/1999/xlink" x="0px" y="0px"
	 width="100%" viewBox="0 0 500 500" enable-background="new 0 0 500 500" xml:space="preserve">
<path fill="#FF5757" opacity="1.000000" stroke="none" 
	d="
M319.000000,501.000000 
	C212.666687,501.000000 106.833382,501.000000 1.000057,501.000000 
	C1.000038,334.333405 1.000038,167.666794 1.000019,1.000146 
	C167.666565,1.000098 334.333130,1.000098 500.999756,1.000049 
	C500.999847,167.666519 500.999847,334.333038 500.999939,500.999786 
	C440.500000,501.000000 380.000000,501.000000 319.000000,501.000000 
M234.532715,196.572678 
	C233.080811,196.629990 231.628891,196.687302 229.460571,196.621582 
	C215.321289,194.302353 209.066467,178.243042 215.949341,168.307022 
	C220.613831,161.573456 227.321228,159.118362 235.537231,158.171005 
	C235.362381,150.129990 235.187515,142.088959 235.058563,134.004822 
	C235.058563,134.004822 235.103561,134.049179 235.264374,133.117249 
	C235.264374,125.376961 235.264374,117.636673 235.264374,109.616196 
	C206.903320,109.142662 185.762482,120.768181 172.500946,144.431595 
	C159.015732,168.494095 160.266983,193.297775 175.549942,216.281723 
	C189.355820,237.044266 209.713730,246.443909 235.066116,246.356613 
	C235.066116,237.656387 235.066116,229.390839 235.123672,220.640030 
	C235.123672,220.640030 235.170044,220.153595 235.529144,219.382889 
	C235.356506,211.905228 235.183868,204.427582 235.018616,196.982788 
	C235.018616,196.982788 235.051651,196.989395 234.532715,196.572678 
M164.642944,326.913910 
	C164.408493,329.077911 164.174042,331.241882 163.926453,333.527069 
	C188.101181,333.527069 211.434235,333.527069 235.200851,333.527069 
	C235.200851,325.116882 235.200851,317.016754 235.407654,308.013672 
	C235.407654,300.103699 235.407654,292.193726 235.407654,283.999512 
	C227.628540,283.999512 220.496536,283.968262 213.364914,284.005432 
	C192.837677,284.112396 171.922852,295.888245 164.152756,323.682465 
	C163.953415,324.395477 164.722565,325.379242 164.642944,326.913910 
M337.977295,112.955101 
	C338.471191,110.132790 336.906616,109.622307 334.522125,109.627007 
	C313.253296,109.668900 291.984222,109.690094 270.715637,109.604698 
	C267.720306,109.592667 266.579681,110.593987 266.661285,113.637024 
	C266.843903,120.444656 266.770386,127.259155 266.579041,134.843658 
	C266.579041,142.786301 266.579041,150.728928 266.579041,159.511093 
	C278.071869,158.963379 289.240967,159.731293 299.851624,157.650879 
	C320.997375,153.504852 337.679840,133.321243 337.977295,112.955101 
M266.943634,308.996521 
	C266.943634,308.996521 266.898682,308.952576 266.725281,309.882446 
	C266.725281,317.665588 266.725281,325.448730 266.725281,333.115051 
	C286.953430,337.004425 315.351837,322.247314 327.841919,301.745758 
	C343.288086,276.391968 341.386627,245.630325 323.238525,222.268860 
	C308.849854,203.746841 282.065948,194.040009 266.931488,197.488937 
	C266.931488,205.602737 266.931488,213.739777 266.878510,222.350662 
	C266.878510,222.350662 266.835724,222.825531 266.470581,223.598587 
	C266.336151,229.540146 266.403412,235.495377 266.001312,241.418762 
	C265.698578,245.878693 267.493835,247.525864 272.503998,247.062881 
	C288.741577,250.021667 291.532074,268.354187 284.436279,276.528107 
	C279.745453,281.931671 273.771484,284.035675 266.459900,284.824371 
	C266.635559,292.866669 266.811218,300.908936 266.943634,308.996521 
z"/>
<path fill="#FFFEFE" opacity="1.000000" stroke="none" 
	d="
M266.931488,221.876831 
	C266.931488,213.739777 266.931488,205.602737 266.931488,197.488937 
	C282.065948,194.040009 308.849854,203.746841 323.238525,222.268860 
	C341.386627,245.630325 343.288086,276.391968 327.841919,301.745758 
	C315.351837,322.247314 286.953430,337.004425 266.725281,333.115051 
	C266.725281,325.448730 266.725281,317.665588 267.269836,309.424927 
	C297.285217,308.972473 316.412506,286.566742 312.040131,257.163239 
	C308.843445,235.665970 288.279053,220.253571 266.931488,221.876831 
z"/>
<path fill="#FFFEFE" opacity="1.000000" stroke="none" 
	d="
M235.066116,221.125290 
	C235.066116,229.390839 235.066116,237.656387 235.066116,246.356613 
	C209.713730,246.443909 189.355820,237.044266 175.549942,216.281723 
	C160.266983,193.297775 159.015732,168.494095 172.500946,144.431595 
	C185.762482,120.768181 206.903320,109.142662 235.264374,109.616196 
	C235.264374,117.636673 235.264374,125.376961 234.725723,133.575363 
	C230.554398,134.369263 226.863861,134.404190 223.298447,135.089783 
	C200.683731,139.438370 185.851685,160.935104 189.095398,184.459442 
	C192.194702,206.936523 212.789917,223.363098 235.066116,221.125290 
z"/>
<path fill="#D78729" opacity="1.000000" stroke="none" 
	d="
M235.094894,220.882660 
	C212.789917,223.363098 192.194702,206.936523 189.095398,184.459442 
	C185.851685,160.935104 200.683731,139.438370 223.298447,135.089783 
	C226.863861,134.404190 230.554398,134.369263 234.645325,134.041321 
	C235.103561,134.049179 235.058563,134.004822 235.053040,134.491547 
	C235.078308,142.937485 235.109116,150.896713 235.139923,158.855942 
	C227.321228,159.118362 220.613831,161.573456 215.949341,168.307022 
	C209.066467,178.243042 215.321289,194.302353 230.222229,196.714157 
	C232.339798,196.867615 233.695724,196.928497 235.051651,196.989395 
	C235.051651,196.989395 235.018616,196.982788 235.047012,197.438080 
	C235.106949,205.313431 235.138504,212.733521 235.170044,220.153595 
	C235.170044,220.153595 235.123672,220.640030 235.094894,220.882660 
z"/>
<path fill="#D78729" opacity="1.000000" stroke="none" 
	d="
M266.904999,222.113739 
	C288.279053,220.253571 308.843445,235.665970 312.040131,257.163239 
	C316.412506,286.566742 297.285217,308.972473 267.356506,308.959961 
	C266.898682,308.952576 266.943634,308.996521 266.947754,308.508789 
	C266.921082,300.060547 266.890320,292.100067 266.859558,284.139587 
	C273.771484,284.035675 279.745453,281.931671 284.436279,276.528107 
	C291.532074,268.354187 288.741577,250.021667 271.825256,246.816650 
	C267.926636,246.266739 266.699646,244.634048 266.824554,241.295685 
	C267.054657,235.147430 266.855835,228.983139 266.835724,222.825531 
	C266.835724,222.825531 266.878510,222.350662 266.904999,222.113739 
z"/>
<path fill="#FDFDFE" opacity="1.000000" stroke="none" 
	d="
M337.859039,113.809143 
	C337.679840,133.321243 320.997375,153.504852 299.851624,157.650879 
	C289.240967,159.731293 278.071869,158.963379 266.579041,159.511093 
	C266.579041,150.728928 266.579041,142.786301 267.171753,134.428543 
	C279.678101,133.644012 291.691620,134.104965 303.479309,132.687729 
	C317.148560,131.044250 330.142487,126.893082 337.859039,113.809143 
z"/>
<path fill="#FDFDFE" opacity="1.000000" stroke="none" 
	d="
M165.040024,326.236755 
	C164.722565,325.379242 163.953415,324.395477 164.152756,323.682465 
	C171.922852,295.888245 192.837677,284.112396 213.364914,284.005432 
	C220.496536,283.968262 227.628540,283.999512 235.407654,283.999512 
	C235.407654,292.193726 235.407654,300.103699 234.893616,308.498413 
	C227.887405,308.989227 221.395172,308.976593 214.903091,309.005066 
	C196.327881,309.086548 178.778366,312.151855 165.040024,326.236755 
z"/>
<path fill="#5C7EBD" opacity="1.000000" stroke="none" 
	d="
M164.841492,326.575317 
	C178.778366,312.151855 196.327881,309.086548 214.903091,309.005066 
	C221.395172,308.976593 227.887405,308.989227 234.790222,308.949890 
	C235.200851,317.016754 235.200851,325.116882 235.200851,333.527069 
	C211.434235,333.527069 188.101181,333.527069 163.926453,333.527069 
	C164.174042,331.241882 164.408493,329.077911 164.841492,326.575317 
z"/>
<path fill="#5C7EBD" opacity="1.000000" stroke="none" 
	d="
M337.918152,113.382126 
	C330.142487,126.893082 317.148560,131.044250 303.479309,132.687729 
	C291.691620,134.104965 279.678101,133.644012 267.282837,134.042145 
	C266.770386,127.259155 266.843903,120.444656 266.661285,113.637024 
	C266.579681,110.593987 267.720306,109.592667 270.715637,109.604698 
	C291.984222,109.690094 313.253296,109.668900 334.522125,109.627007 
	C336.906616,109.622307 338.471191,110.132790 337.918152,113.382126 
z"/>
<path fill="#F69884" opacity="1.000000" stroke="none" 
	d="
M266.653137,223.212067 
	C266.855835,228.983139 267.054657,235.147430 266.824554,241.295685 
	C266.699646,244.634048 267.926636,246.266739 271.443665,246.759659 
	C267.493835,247.525864 265.698578,245.878693 266.001312,241.418762 
	C266.403412,235.495377 266.336151,229.540146 266.653137,223.212067 
z"/>
<path fill="#F69884" opacity="1.000000" stroke="none" 
	d="
M235.338577,158.513474 
	C235.109116,150.896713 235.078308,142.937485 235.030075,134.513092 
	C235.187515,142.088959 235.362381,150.129990 235.338577,158.513474 
z"/>
<path fill="#F69884" opacity="1.000000" stroke="none" 
	d="
M266.659729,284.481995 
	C266.890320,292.100067 266.921082,300.060547 266.969360,308.486145 
	C266.811218,300.908936 266.635559,292.866669 266.659729,284.481995 
z"/>
<path fill="#F69884" opacity="1.000000" stroke="none" 
	d="
M235.349594,219.768250 
	C235.138504,212.733521 235.106949,205.313431 235.043335,197.421631 
	C235.183868,204.427582 235.356506,211.905228 235.349594,219.768250 
z"/>
<path fill="#F69884" opacity="1.000000" stroke="none" 
	d="
M234.792175,196.781036 
	C233.695724,196.928497 232.339798,196.867615 230.580429,196.775665 
	C231.628891,196.687302 233.080811,196.629990 234.792175,196.781036 
z"/>
</svg>